<svg xmlns="http://www.w3.org/2000/svg" version="1.1" xmlns:xlink="http://www.w3.org/1999/xlink" xmlns:svgjs="http://svgjs.com/svgjs" width="1440" height="560" preserveAspectRatio="none" viewBox="0 0 1440 560"><g mask="url(&quot;#SvgjsMask1000&quot;)" fill="none"><rect width="1440" height="560" x="0" y="0" fill="#0e2a47" data-darkreader-inline-fill="" style="--darkreader-inline-fill:#051d35;"></rect><path d="M192.01 311.9 L318.65 423.76L169.0554567007739 454.10454329922607z" fill="#d3b714" data-darkreader-inline-fill="" style="--darkreader-inline-fill:#ab930a;"></path><rect width="147.84" height="147.84" clip-path="url(&quot;#SvgjsClipPath1001&quot;)" x="241.9" y="262.49" fill="url(#SvgjsPattern1002)" transform="rotate(194.51, 315.82, 336.41)"></rect><rect width="280.28" height="280.28" clip-path="url(&quot;#SvgjsClipPath1003&quot;)" x="393.88" y="216.99" fill="url(#SvgjsPattern1004)" transform="rotate(352.5, 534.02, 357.13)"></rect><rect width="179.2" height="179.2" clip-path="url(&quot;#SvgjsClipPath1005&quot;)" x="583.65" y="267.54" fill="url(#SvgjsPattern1006)" transform="rotate(117.11, 673.25, 357.14)"></rect><rect width="336" height="336" clip-path="url(&quot;#SvgjsClipPath1007&quot;)" x="-130.94" y="-102.84" fill="url(#SvgjsPattern1008)" transform="rotate(229.63, 37.06, 65.16)"></rect><path d="M727.39 293.83L740.07 292.08 744.57 304.07 757.25 302.31 761.75 314.3 774.44 312.55 778.93 324.54M723.29 300.7L735.98 298.95 740.47 310.94 753.16 309.19 757.66 321.18 770.34 319.42 774.84 331.42" stroke="#037b0b" stroke-width="1" stroke-dasharray="3, 2" data-darkreader-inline-stroke="" style="--darkreader-inline-stroke:#77ff80;"></path><rect width="305.28" height="305.28" clip-path="url(&quot;#SvgjsClipPath1009&quot;)" x="1178.19" y="285.84" fill="url(#SvgjsPattern1010)" transform="rotate(226.41, 1330.83, 438.48)"></rect><path d="M1219.04 213.94L1217.95 226.69 1205.26 228.43 1204.16 241.19 1191.47 242.92 1190.38 255.68 1177.69 257.41M1213.24 208.42L1212.15 221.18 1199.46 222.92 1198.37 235.67 1185.68 237.41 1184.58 250.17 1171.9 251.9M1207.45 202.91L1206.35 215.67 1193.66 217.4 1192.57 230.16 1179.88 231.9 1178.79 244.65 1166.1 246.39" stroke="#037b0b" stroke-width="1.37" stroke-dasharray="3, 3" data-darkreader-inline-stroke="" style="--darkreader-inline-stroke:#77ff80;"></path><rect width="168" height="168" clip-path="url(&quot;#SvgjsClipPath1011&quot;)" x="476.09" y="265.82" fill="url(#SvgjsPattern1012)" transform="rotate(306.65, 560.09, 349.82)"></rect><path d="M887.4 223.89a5.6 5.6 0 1 0 3.63-10.6 5.6 5.6 0 1 0-3.63 10.6zM892.58 208.75a5.6 5.6 0 1 0 3.64-10.59 5.6 5.6 0 1 0-3.64 10.59zM897.77 193.62a5.6 5.6 0 1 0 3.63-10.6 5.6 5.6 0 1 0-3.63 10.6zM902.96 178.48a5.6 5.6 0 1 0 3.63-10.59 5.6 5.6 0 1 0-3.63 10.59zM892.16 259.35a5.6 5.6 0 1 0 3.63-10.6 5.6 5.6 0 1 0-3.63 10.6zM897.34 244.21a5.6 5.6 0 1 0 3.64-10.59 5.6 5.6 0 1 0-3.64 10.59zM902.53 229.08a5.6 5.6 0 1 0 3.63-10.6 5.6 5.6 0 1 0-3.63 10.6zM907.72 213.94a5.6 5.6 0 1 0 3.63-10.59 5.6 5.6 0 1 0-3.63 10.59zM896.92 294.81a5.6 5.6 0 1 0 3.63-10.6 5.6 5.6 0 1 0-3.63 10.6zM902.1 279.67a5.6 5.6 0 1 0 3.63-10.59 5.6 5.6 0 1 0-3.63 10.59zM907.29 264.53a5.6 5.6 0 1 0 3.63-10.59 5.6 5.6 0 1 0-3.63 10.59zM912.48 249.4a5.6 5.6 0 1 0 3.63-10.6 5.6 5.6 0 1 0-3.63 10.6z" fill="#037b0b" data-darkreader-inline-fill="" style="--darkreader-inline-fill:#006103;"></path><path d="M262.83 504.93L254.38 495.31 261.91 484.95 253.46 475.33 260.99 464.98 252.54 455.35 260.08 445M270.82 504.57L262.37 494.94 269.9 484.59 261.45 474.97 268.99 464.61 260.53 454.99 268.07 444.63M278.81 504.2L270.36 494.58 277.89 484.22 269.44 474.6 276.98 464.24 268.53 454.62 276.06 444.26" stroke="#037b0b" stroke-width="1.84" stroke-dasharray="3, 3" data-darkreader-inline-stroke="" style="--darkreader-inline-stroke:#77ff80;"></path><path d="M131.76 74.8a5.6 5.6 0 1 0 7.96 7.87 5.6 5.6 0 1 0-7.96-7.87zM143.14 86.05a5.6 5.6 0 1 0 7.97 7.87 5.6 5.6 0 1 0-7.97-7.87zM154.52 97.29a5.6 5.6 0 1 0 7.97 7.87 5.6 5.6 0 1 0-7.97-7.87zM165.91 108.53a5.6 5.6 0 1 0 7.97 7.87 5.6 5.6 0 1 0-7.97-7.87z" stroke="#e73635" stroke-width="1" stroke-dasharray="3, 2" data-darkreader-inline-stroke="" style="--darkreader-inline-stroke:#ee4241;"></path></g><defs><mask id="SvgjsMask1000"><rect width="1440" height="560" fill="#ffffff" data-darkreader-inline-fill="" style="--darkreader-inline-fill:#131516;"></rect></mask><pattern x="0" y="0" width="10.56" height="10.56" patternUnits="userSpaceOnUse" id="SvgjsPattern1002"><path d="M5.28 1L5.28 9.56M1 5.28L9.56 5.28" stroke="#037b0b" fill="none" stroke-width="1.83" data-darkreader-inline-stroke="" style="--darkreader-inline-stroke:#77ff80;"></path></pattern><clipPath id="SvgjsClipPath1001"><circle r="36.96" cx="315.82" cy="336.41"></circle></clipPath><pattern x="0" y="0" width="10.78" height="10.78" patternUnits="userSpaceOnUse" id="SvgjsPattern1004"><path d="M5.39 1L5.39 9.78M1 5.39L9.78 5.39" stroke="#e73635" fill="none" stroke-width="2.26" data-darkreader-inline-stroke="" style="--darkreader-inline-stroke:#ee4241;"></path></pattern><clipPath id="SvgjsClipPath1003"><circle r="70.07" cx="534.02" cy="357.13"></circle></clipPath><pattern x="0" y="0" width="11.2" height="11.2" patternUnits="userSpaceOnUse" id="SvgjsPattern1006"><path d="M5.6 1L5.6 10.2M1 5.6L10.2 5.6" stroke="#d3b714" fill="none" stroke-width="3.26" data-darkreader-inline-stroke="" style="--darkreader-inline-stroke:#f2d73a;"></path></pattern><clipPath id="SvgjsClipPath1005"><circle r="44.8" cx="673.25" cy="357.14"></circle></clipPath><pattern x="0" y="0" width="336" height="6" patternUnits="userSpaceOnUse" id="SvgjsPattern1008"><rect width="336" height="3" x="0" y="0" fill="#037b0b" data-darkreader-inline-fill="" style="--darkreader-inline-fill:#006103;"></rect><rect width="336" height="3" x="0" y="3" fill="rgba(0, 0, 0, 0)" data-darkreader-inline-fill="" style="--darkreader-inline-fill:rgba(0, 0, 0, 0);"></rect></pattern><clipPath id="SvgjsClipPath1007"><circle r="84" cx="37.06" cy="65.16"></circle></clipPath><pattern x="0" y="0" width="6.36" height="6.36" patternUnits="userSpaceOnUse" id="SvgjsPattern1010"><path d="M3.18 1L3.18 5.36M1 3.18L5.36 3.18" stroke="#037b0b" fill="none" stroke-width="1" data-darkreader-inline-stroke="" style="--darkreader-inline-stroke:#77ff80;"></path></pattern><clipPath id="SvgjsClipPath1009"><circle r="76.32" cx="1330.83" cy="438.48"></circle></clipPath><pattern x="0" y="0" width="6" height="6" patternUnits="userSpaceOnUse" id="SvgjsPattern1012"><path d="M0 6L3 0L6 6" stroke="#d3b714" fill="none" data-darkreader-inline-stroke="" style="--darkreader-inline-stroke:#f2d73a;"></path></pattern><clipPath id="SvgjsClipPath1011"><circle r="42" cx="560.09" cy="349.82"></circle></clipPath></defs></svg>