<svg xmlns="http://www.w3.org/2000/svg" version="1.1" xmlns:xlink="http://www.w3.org/1999/xlink" xmlns:svgjs="http://svgjs.com/svgjs" width="1440" height="560" preserveAspectRatio="none" viewBox="0 0 1440 560"><g mask="url(&quot;#SvgjsMask1000&quot;)" fill="none"><rect width="1440" height="560" x="0" y="0" fill="#0e2a47" data-darkreader-inline-fill="" style="--darkreader-inline-fill:#051d35;"></rect><path d="M879.05 551.64L917.16 551.64L917.16 564.46L879.05 564.46z" fill="#d3b714" data-darkreader-inline-fill="" style="--darkreader-inline-fill:#f2d73a;"></path><path d="M113.1 10.86 a19.88 19.88 0 1 0 39.76 0 a19.88 19.88 0 1 0 -39.76 0z" fill="#d3b714" data-darkreader-inline-fill="" style="--darkreader-inline-fill:#f2d73a;"></path><path d="M934.12 358.35a0.15 0.15 0 1 0-0.13-0.27z" fill="#e73635" data-darkreader-inline-fill="" style="--darkreader-inline-fill:#ee4241;"></path><path d="M575.44 126.79a2.51 2.51 0 1 0 1.8-4.68z" fill="#037b0b" data-darkreader-inline-fill="" style="--darkreader-inline-fill:#77ff80;"></path><path d="M559.93 416.25L587.72 416.25L587.72 460.32L559.93 460.32z" fill="#d3b714" data-darkreader-inline-fill="" style="--darkreader-inline-fill:#f2d73a;"></path><path d="M1001.93 209.19a23.82 23.82 0 1 0-45.72-13.39z" stroke="#037b0b" data-darkreader-inline-stroke="" style="--darkreader-inline-stroke:#77ff80;"></path><path d="M326.61 552.24L349.68 552.24L349.68 575.31L326.61 575.31z" stroke="#e73635" data-darkreader-inline-stroke="" style="--darkreader-inline-stroke:#ee4241;"></path><path d="M86.19 13.98L86.68 13.98L86.68 14.47L86.19 14.47z" fill="#037b0b" data-darkreader-inline-fill="" style="--darkreader-inline-fill:#77ff80;"></path><path d="M1068.23 521.27a11.16 11.16 0 1 0-19.86 10.19z" stroke="#037b0b" data-darkreader-inline-stroke="" style="--darkreader-inline-stroke:#77ff80;"></path><path d="M64.65 282.49 a25.81 25.81 0 1 0 51.62 0 a25.81 25.81 0 1 0 -51.62 0z" stroke="#d3b714" data-darkreader-inline-stroke="" style="--darkreader-inline-stroke:#f2d73a;"></path><path d="M1177.67 425.41L1226.1 425.41L1226.1 473.84L1177.67 473.84z" fill="#037b0b" data-darkreader-inline-fill="" style="--darkreader-inline-fill:#77ff80;"></path><path d="M1338.11 476.43L1375.12 476.43L1375.12 510.59L1338.11 510.59z" fill="#e73635" data-darkreader-inline-fill="" style="--darkreader-inline-fill:#ee4241;"></path><path d="M356.5 418.69L379.21 418.69L379.21 441.4L356.5 441.4z" fill="#d3b714" data-darkreader-inline-fill="" style="--darkreader-inline-fill:#f2d73a;"></path><path d="M41.96 468.99a9.88 9.88 0 1 0 14.64-13.28z" stroke="#037b0b" data-darkreader-inline-stroke="" style="--darkreader-inline-stroke:#77ff80;"></path><path d="M575 58.16L597.92 58.16L597.92 72.1L575 72.1z" stroke="#e73635" data-darkreader-inline-stroke="" style="--darkreader-inline-stroke:#ee4241;"></path><path d="M1259.14 222.89a47.74 47.74 0 1 0-61.14 73.33z" stroke="#d3b714" data-darkreader-inline-stroke="" style="--darkreader-inline-stroke:#f2d73a;"></path><path d="M1064.12 488.84a45.73 45.73 0 1 0-71.76-56.69z" fill="#037b0b" data-darkreader-inline-fill="" style="--darkreader-inline-fill:#006103;"></path><path d="M1097 443.81a5.97 5.97 0 1 0 6.42-10.07z" fill="#d3b714" data-darkreader-inline-fill="" style="--darkreader-inline-fill:#f2d73a;"></path><path d="M112.45 131.25a4.19 4.19 0 1 0-3.26 7.72z" stroke="#e73635" data-darkreader-inline-stroke="" style="--darkreader-inline-stroke:#ee4241;"></path><path d="M222.7-2.13a53.65 53.65 0 1 0-64.64 85.64z" fill="#037b0b" data-darkreader-inline-fill="" style="--darkreader-inline-fill:#006103;"></path><path d="M43.45 214.31a44.02 44.02 0 1 0 4.83-87.91z" fill="#e73635" data-darkreader-inline-fill="" style="--darkreader-inline-fill:#a9100f;"></path><path d="M1155.57 367.57L1189.93 367.57L1189.93 401.93L1155.57 401.93z" fill="#e73635" data-darkreader-inline-fill="" style="--darkreader-inline-fill:#ee4241;"></path><path d="M1231.38 155.28L1273.9 155.28L1273.9 180.44L1231.38 180.44z" fill="#037b0b" data-darkreader-inline-fill="" style="--darkreader-inline-fill:#77ff80;"></path><path d="M216.37 12.44 a17.6 17.6 0 1 0 35.2 0 a17.6 17.6 0 1 0 -35.2 0z" stroke="#037b0b" data-darkreader-inline-stroke="" style="--darkreader-inline-stroke:#77ff80;"></path><path d="M662.07 198.34a1.09 1.09 0 1 0-1.55 1.53z" stroke="#e73635" data-darkreader-inline-stroke="" style="--darkreader-inline-stroke:#ee4241;"></path><path d="M894.57 261.92a4.04 4.04 0 1 0-1.35-7.96z" stroke="#d3b714" data-darkreader-inline-stroke="" style="--darkreader-inline-stroke:#f2d73a;"></path><path d="M796.66 191.79L819.95 191.79L819.95 201.03L796.66 201.03z" fill="#e73635" data-darkreader-inline-fill="" style="--darkreader-inline-fill:#ee4241;"></path><path d="M665.45 444.74 a47.59 47.59 0 1 0 95.18 0 a47.59 47.59 0 1 0 -95.18 0z" stroke="#037b0b" data-darkreader-inline-stroke="" style="--darkreader-inline-stroke:#77ff80;"></path><path d="M1317.56 367.29a45.11 45.11 0 1 0-24.51-86.83z" stroke="#037b0b" data-darkreader-inline-stroke="" style="--darkreader-inline-stroke:#77ff80;"></path><path d="M474.46 27.79L499.19 27.79L499.19 52.52L474.46 52.52z" stroke="#d3b714" data-darkreader-inline-stroke="" style="--darkreader-inline-stroke:#f2d73a;"></path><path d="M427.93 114.38a53.6 53.6 0 1 0 107.2-1.34z" fill="#d3b714" data-darkreader-inline-fill="" style="--darkreader-inline-fill:#ab930a;"></path><path d="M283.41 384.41L332.84 384.41L332.84 433.84L283.41 433.84z" fill="#037b0b" data-darkreader-inline-fill="" style="--darkreader-inline-fill:#77ff80;"></path><path d="M252.9 425.85a41.25 41.25 0 1 0-64.64-51.25z" stroke="#037b0b" data-darkreader-inline-stroke="" style="--darkreader-inline-stroke:#77ff80;"></path></g><defs><mask id="SvgjsMask1000"><rect width="1440" height="560" fill="#ffffff" data-darkreader-inline-fill="" style="--darkreader-inline-fill:#131516;"></rect></mask></defs></svg>