<?xml version="1.0" encoding="iso-8859-1"?>
<!-- Uploaded to: SVG Repo, www.svgrepo.com, Generator: SVG Repo Mixer Tools -->
<svg version="1.1" id="Layer_1" xmlns="http://www.w3.org/2000/svg" xmlns:xlink="http://www.w3.org/1999/xlink" 
	 viewBox="0 0 512 512" xml:space="preserve">
<path style="fill:#EFEFEF;" d="M147.058,455.111H90.169V39.822c0-15.709,12.735-28.444,28.444-28.444l0,0
	c15.709,0,28.444,12.735,28.444,28.444V455.111z"/>
<rect x="47.502" y="455.111" style="fill:#747D8C;" width="142.222" height="45.511"/>
<path style="fill:#EFEFEF;" d="M421.831,455.111h-56.889V39.822c0-15.709,12.735-28.444,28.444-28.444l0,0
	c15.709,0,28.444,12.735,28.444,28.444V455.111z"/>
<rect x="322.276" y="455.111" style="fill:#747D8C;" width="142.222" height="45.511"/>
<rect x="11.378" y="91.739" style="fill:#FAC51C;" width="489.244" height="91.022"/>
<rect x="11.378" y="228.272" style="fill:#FBA026;" width="489.244" height="91.022"/>
<g>
	<path style="fill:#231F20;" d="M500.622,194.137c6.283,0,11.378-5.094,11.378-11.378V91.737c0-6.284-5.095-11.378-11.378-11.378
		h-67.413V39.822C433.209,17.864,415.345,0,393.387,0c-21.958,0-39.822,17.864-39.822,39.822v40.537H158.436V39.822
		C158.436,17.864,140.571,0,118.613,0S78.791,17.864,78.791,39.822v40.537H11.378C5.095,80.359,0,85.453,0,91.737v91.022
		c0,6.284,5.095,11.378,11.378,11.378h67.413v22.756H11.378C5.095,216.892,0,221.986,0,228.27v91.022
		c0,6.284,5.095,11.378,11.378,11.378h67.413v113.063H47.502c-6.283,0-11.378,5.094-11.378,11.378v45.511
		c0,6.284,5.095,11.378,11.378,11.378h142.222c6.283,0,11.378-5.094,11.378-11.378v-45.511c0-6.284-5.095-11.378-11.378-11.378
		h-31.289V330.67h195.129v113.063h-31.289c-6.283,0-11.378,5.094-11.378,11.378v45.511c0,6.284,5.095,11.378,11.378,11.378h142.222
		c6.283,0,11.378-5.094,11.378-11.378v-45.511c0-6.284-5.095-11.378-11.378-11.378h-31.289V330.67h67.413
		c6.283,0,11.378-5.094,11.378-11.378V228.27c0-6.284-5.095-11.378-11.378-11.378h-67.413v-22.756L500.622,194.137L500.622,194.137z
		 M369.867,171.381l68.267-68.267h28.572l-68.267,68.267H369.867z M307.864,307.915l68.267-68.267h89.327l-68.267,68.267H307.864z
		 M172.951,307.915l68.267-68.267h102.731l-68.267,68.267H172.951z M51.442,307.915l68.267-68.267h28.572l-68.267,68.267H51.442z
		 M52.69,171.381l68.267-68.267h28.572l-68.267,68.267H52.69z M181.711,103.115h28.572l-68.267,68.267h-28.572L181.711,103.115z
		 M345.197,103.115l-68.267,68.267H174.199l68.267-68.267C242.466,103.115,345.197,103.115,345.197,103.115z M309.113,171.381
		l68.267-68.267h28.572l-68.267,68.267H309.113z M180.464,239.648h28.572l-68.267,68.267h-28.572L180.464,239.648z M158.436,216.892
		v-22.756h195.129v22.756H158.436z M430.622,171.381l58.623-58.623v58.623L430.622,171.381L430.622,171.381z M376.32,39.822
		c0-9.411,7.656-17.067,17.067-17.067s17.067,7.656,17.067,17.067v40.537H376.32V39.822z M101.547,39.822
		c0-9.411,7.656-17.067,17.067-17.067s17.067,7.656,17.067,17.067v40.537h-34.133V39.822z M88.774,103.115l-66.018,66.02v-66.02
		H88.774z M101.547,194.137h34.133v22.756h-34.133V194.137z M87.527,239.648L22.756,304.42v-64.771h64.771V239.648z
		 M178.347,489.244H58.88v-22.756h119.467V489.244z M135.68,443.733h-34.133V330.67h34.133V443.733z M453.12,489.244H333.653
		v-22.756H453.12V489.244z M410.453,443.733H376.32V330.67h34.133V443.733z M429.373,307.915l59.871-59.87v59.871h-59.871V307.915z
		 M410.453,216.892H376.32v-22.756h34.133V216.892z"/>
	<path style="fill:#231F20;" d="M395.612,264.831c-4.444-4.443-11.646-4.443-16.092,0l-1.138,1.138
		c-4.443,4.443-4.443,11.647,0,16.092c2.222,2.222,5.134,3.333,8.045,3.333c2.912,0,5.823-1.11,8.045-3.333l1.138-1.138
		C400.055,276.48,400.055,269.274,395.612,264.831z"/>
</g>
</svg>