<?xml version="1.0" encoding="utf-8"?>
<!-- Uploaded to: SVG Repo, www.svgrepo.com, Generator: SVG Repo Mixer Tools -->
<!DOCTYPE svg PUBLIC "-//W3C//DTD SVG 1.1//EN" "http://www.w3.org/Graphics/SVG/1.1/DTD/svg11.dtd">
<svg xmlns="http://www.w3.org/2000/svg" xmlns:xlink="http://www.w3.org/1999/xlink" version="1.1" id="Layer_1"  width="512" height="512" viewBox="0 0 512 512" enable-background="new 0 0 512 512" xml:space="preserve">
<g id="micro_usb">
	<g>
		<rect x="213.332" y="327" fill="#434A54" width="85.32" height="185"/>
	</g>
	<g>
		<rect x="191.996" fill="#E6E9ED" width="128" height="234.672"/>
	</g>
	<path fill="#A0D468" d="M330.652,106.672h-149.32c-5.867,0-10.672,4.797-10.672,10.664v149.336c0,5.859,1.523,15.219,3.375,20.781   l14.586,43.766c1.859,5.562,3.375,14.922,3.375,20.781v42.672c0,5.859,4.797,10.672,10.664,10.672h106.68   c5.859,0,10.656-4.812,10.656-10.672V352c0-5.859,1.516-15.219,3.375-20.781l14.594-43.766c1.844-5.562,3.375-14.922,3.375-20.781   V117.336C341.34,111.469,336.527,106.672,330.652,106.672z"/>
	<path fill="#CCD1D9" d="M287.996,10.672c5.891,0,10.656-4.781,10.656-10.672H277.34C277.34,5.891,282.105,10.672,287.996,10.672z"/>
	<path fill="#CCD1D9" d="M309.34,10.672c5.875,0,10.656-4.781,10.656-10.672h-21.344C298.652,5.891,303.434,10.672,309.34,10.672z"/>
	<path fill="#CCD1D9" d="M245.332,10.672c5.891,0,10.664-4.781,10.664-10.672H234.66C234.66,5.891,239.441,10.672,245.332,10.672z"/>
	<path fill="#CCD1D9" d="M266.66,10.672c5.898,0,10.68-4.781,10.68-10.672h-21.344C255.996,5.891,260.77,10.672,266.66,10.672z"/>
	<path fill="#CCD1D9" d="M202.66,10.672c5.891,0,10.672-4.781,10.672-10.672h-21.336C191.996,5.891,196.77,10.672,202.66,10.672z"/>
	<path fill="#CCD1D9" d="M223.996,10.672c5.891,0,10.664-4.781,10.664-10.672h-21.328C213.332,5.891,218.105,10.672,223.996,10.672z   "/>
	<path fill="#8CC153" d="M190.98,341.344c0.625,3.812,1.016,7.688,1.016,10.656v42.672c0,5.859,4.797,10.672,10.664,10.672h106.68   c5.859,0,10.656-4.812,10.656-10.672V352c0-2.969,0.391-6.844,1.016-10.656H190.98z"/>
	<path opacity="0.1" d="M319.996,373.344c-5.75,0.156-10.391,4.859-10.391,10.656s4.641,10.516,10.391,10.656V373.344z"/>
	<path opacity="0.1" d="M319.715,373.344c0.094,0,0.188-0.016,0.281-0.031v-21.297c-0.094,0-0.188-0.016-0.281-0.016   c-5.891,0-10.656,4.781-10.656,10.672S313.824,373.344,319.715,373.344z"/>
	<path opacity="0.1" d="M191.996,352v21.344l0,0c5.891,0,10.664-4.781,10.664-10.672S197.887,352,191.996,352L191.996,352z"/>
	<path opacity="0.1" d="M202.66,384c0-5.891-4.773-10.656-10.664-10.656l0,0v21.328C197.887,394.672,202.66,389.891,202.66,384z"/>
	<g>
		<path fill="#8CC153" d="M223.996,213.336h64c5.891,0,10.656-4.773,10.656-10.664S293.887,192,287.996,192h-64    c-5.891,0-10.664,4.781-10.664,10.672S218.105,213.336,223.996,213.336z"/>
		<path fill="#8CC153" d="M287.996,234.672h-64c-5.891,0-10.664,4.773-10.664,10.664S218.105,256,223.996,256h64    c5.891,0,10.656-4.773,10.656-10.664S293.887,234.672,287.996,234.672z"/>
	</g>
</g>
</svg>